<?xml version="1.0" encoding="UTF-8"?>
<!DOCTYPE svg PUBLIC "-//W3C//DTD SVG 1.0//EN" "http://www.w3.org/TR/2001/REC-SVG-20010904/DTD/svg10.dtd">
<!-- Creator: CorelDRAW X7 -->
<svg xmlns="http://www.w3.org/2000/svg" xml:space="preserve" width="109.652mm" height="103.811mm" version="1.0" style="shape-rendering:geometricPrecision; text-rendering:geometricPrecision; image-rendering:optimizeQuality; fill-rule:evenodd; clip-rule:evenodd"
viewBox="0 0 10470 9912"
 xmlns:xlink="http://www.w3.org/1999/xlink">
 <defs>
  <style type="text/css">
   <![CDATA[
    .fil0 {fill:black}
   ]]>
  </style>
 </defs>
 <g id="Слой_x0020_1">
  <metadata id="CorelCorpID_0Corel-Layer"/>
  <g id="_1260174816">
   <path class="fil0" d="M1263 8641c0,328 80,593 280,830 215,255 571,420 916,420 1006,0 1741,-374 2724,-374 135,0 524,70 674,95 223,37 437,73 659,110 384,63 971,190 1358,190 193,0 357,-33 498,-89 73,-29 125,-65 184,-105 38,-25 46,-40 82,-68 58,-46 152,-175 193,-244 297,-502 231,-1045 -16,-1545 -55,-110 -130,-215 -202,-311 -112,-150 -356,-401 -495,-530 -28,-25 -44,-30 -70,-58 -25,-27 -31,-42 -58,-70 -45,-45 -85,-82 -129,-128l-238 -274c-548,-697 -627,-887 -1022,-1542 -132,-220 -265,-407 -470,-555 -188,-136 -491,-227 -809,-227 -501,0 -796,223 -1108,484l-252 281c-179,222 -391,535 -565,771 -297,405 -417,590 -802,929 -118,104 -230,219 -356,316l-274 260c-29,29 -35,38 -60,69l-183 222c-227,302 -459,768 -459,1143z"/>
   <path class="fil0" d="M5631 2083c0,391 36,619 179,954 46,107 128,231 200,323 27,35 48,63 78,93 100,100 71,77 187,165 289,218 691,236 1026,102 149,-59 422,-238 516,-360 33,-43 67,-81 103,-121 32,-37 68,-87 96,-128 245,-367 425,-861 425,-1338 0,-352 -4,-452 -101,-797 -83,-292 -261,-547 -484,-743 -33,-29 -67,-52 -105,-77 -149,-98 -315,-148 -483,-156l-107 0c-224,11 -450,91 -645,222 -137,91 -249,208 -349,335 -347,437 -536,930 -536,1526z"/>
   <path class="fil0" d="M2032 1784c0,449 121,900 327,1274 247,448 733,841 1264,841 423,0 739,-273 913,-530 390,-575 391,-1437 143,-2054 -20,-50 -40,-106 -66,-158 -195,-389 -471,-724 -869,-915 -339,-164 -743,-108 -1056,83 -87,53 -215,176 -272,252 -227,298 -384,725 -384,1207z"/>
   <path class="fil0" d="M7992 5159c0,464 171,937 544,1144 558,309 1148,-52 1489,-511 31,-42 54,-75 85,-117 82,-111 163,-286 215,-415 83,-205 134,-440 145,-680l0 -204c-14,-296 -93,-585 -252,-813 -324,-467 -944,-461 -1369,-142 -43,33 -80,62 -120,93 -91,70 -244,250 -311,340 -262,355 -426,864 -426,1305z"/>
   <path class="fil0" d="M2480 5159c0,-537 -262,-1201 -659,-1551l-175 -146c-208,-156 -396,-236 -693,-236 -147,0 -300,45 -395,96 -584,306 -658,1237 -458,1793 78,218 193,480 331,662l108 138c297,320 728,592 1194,473 247,-63 432,-235 551,-432 118,-196 196,-487 196,-797z"/>
  </g>
 </g>
</svg>
